# xmcd
#
# Track frame offsets:
#	150
#	16842
#	32632
#	51225
#	70105
#	88750
#	105310
#	119585
#	136467
#	151240
#	166260
#	182952
#	198745
#	217335
#	236217
#	254862
#	271422
#	285697
#	302580
#	317352
#
# Disc length: 4430 seconds
#
# Revision: 2
# Processed by: cddbd v1.5.2PL0 Copyright (c) Steve Scherf et al.
# Submitted via: audiograbber 1.83.01
#
DISCID=2c114c14
DTITLE=Various Artist - THMC0205
DYEAR=2002
DGENRE=Karaoke
TTITLE0=Trick Pony - Just What I Do (Vocals)
TTITLE1=Brooks, Garth And Yearwood, Trisha - Squeeze Me In (Vocals)
TTITLE2=Lonestar - Not A Day Goes By (Vocals)
TTITLE3=Jackson, Alan - Drive (For Daddy Gene) (Vocals)
TTITLE4=Lawson, Shannon - Goodbye On A Bad Day (Vocals)
TTITLE5=Martin, Brad - Before I Knew Better (Vocals)
TTITLE6=Andrews, Jessica - Karma (Vocals)
TTITLE7=Strait, George - Living And Living Well (Vocals)
TTITLE8=Griggs, Andy - Tonight I Want To Be Your Man (Vocals)
TTITLE9=Paisley, Brad - I'm Gonna Miss Her (Vocals)
TTITLE10=Trick Pony - Just What I Do
TTITLE11=Brooks, Garth And Yearwood, Trisha - Squeeze Me In
TTITLE12=Lonestar - Not A Day Goes By
TTITLE13=Jackson, Alan - Drive (For Daddy Gene)
TTITLE14=Lawson, Shannon - Goodbye On A Bad Day
TTITLE15=Martin, Brad - Before I Knew Better
TTITLE16=Andrews, Jessica - Karma
TTITLE17=Strait, George - Living And Living Well
TTITLE18=Griggs, Andy - Tonight I Wanna Be Your Man
TTITLE19=Paisley, Brad - I'm Gonna Miss Her
EXTD=
EXTT0=
EXTT1=
EXTT2=
EXTT3=
EXTT4=
EXTT5=
EXTT6=
EXTT7=
EXTT8=
EXTT9=
EXTT10=
EXTT11=
EXTT12=
EXTT13=
EXTT14=
EXTT15=
EXTT16=
EXTT17=
EXTT18=
EXTT19=
PLAYORDER=
